<svg width="1600" height="1600" viewBox="0 0 2202 2189" fill="none" xmlns="http://www.w3.org/2000/svg" xmlns:xlink="http://www.w3.org/1999/xlink">

<g opacity="0.5">
<circle opacity="0.5" cx="1096.95" cy="1123.26" r="549" transform="rotate(127.84 1096.95 1123.26)" stroke="#EB0B0B"/>
</g>
<path d="M1448.54 1579.53L1449.28 1578.88C1447.1 1568.95 1448.42 1559.42 1453.2 1550.35C1457.99 1541.25 1464.59 1533.06 1472.99 1525.72C1490.77 1510.15 1508.59 1503.67 1526.42 1506.28C1544.25 1508.89 1561.39 1519.58 1577.85 1538.37L1599.22 1562.79C1607.44 1572.17 1613.51 1581.74 1617.44 1591.5C1621.37 1601.25 1623.16 1610.8 1622.75 1620.19C1622.37 1629.55 1619.99 1638.6 1615.61 1647.32C1611.22 1656.04 1604.86 1664.08 1596.46 1671.42C1590.92 1676.27 1585.67 1679.97 1580.68 1682.57C1575.7 1685.17 1571.1 1687.02 1566.94 1688.17C1562.75 1689.31 1558.97 1689.8 1555.58 1689.67C1552.18 1689.53 1549.33 1689.13 1547 1688.52L1602.47 1751.93L1570.75 1779.69L1404.31 1589.45L1434.26 1563.24L1448.54 1579.53ZM1550.78 1570.44C1540.51 1558.69 1530.14 1551.67 1519.72 1549.43C1509.3 1547.15 1499.46 1550.05 1490.22 1558.13C1485.03 1562.68 1481.15 1567.63 1478.57 1572.98C1475.99 1578.33 1474.68 1583.78 1474.62 1589.32C1474.55 1594.85 1475.58 1600.31 1477.67 1605.74C1479.76 1611.18 1482.84 1616.23 1486.97 1620.93L1511.65 1649.11C1514.45 1652.29 1517.91 1654.98 1521.99 1657.15C1526.12 1659.32 1530.61 1660.57 1535.48 1660.89C1540.35 1661.21 1545.5 1660.47 1550.91 1658.71C1556.33 1656.95 1561.8 1653.61 1567.32 1648.78C1577.4 1639.97 1581.96 1630.19 1581 1619.48C1580.07 1608.74 1574.53 1597.59 1564.39 1586.02L1550.78 1570.44Z" fill="white"/>
<path d="M1239.28 1680.22C1245.29 1671.29 1253.21 1662.93 1263.06 1655.1C1272.89 1647.3 1285.86 1640.13 1302 1633.61C1311.92 1629.61 1322.06 1627.01 1332.4 1625.84C1342.74 1624.67 1352.83 1625.66 1362.6 1628.78C1372.4 1631.92 1381.57 1637.7 1390.15 1646.14C1398.72 1654.57 1406.1 1666.42 1412.27 1681.72L1419.4 1699.39C1424.99 1713.25 1427.79 1726 1427.82 1737.66C1427.85 1749.31 1425.66 1759.81 1421.24 1769.16C1416.82 1778.51 1410.56 1786.62 1402.42 1793.54C1394.25 1800.44 1384.71 1806.13 1373.74 1810.54C1363 1814.86 1352.39 1817.36 1341.94 1817.98C1331.49 1818.61 1321.7 1817.09 1312.51 1813.45C1303.37 1809.82 1295.02 1804.06 1287.51 1796.15C1280 1788.23 1273.74 1778.1 1268.72 1765.69L1257.34 1737.48L1371.76 1691.26C1366.26 1677.63 1358.5 1668.79 1348.44 1664.79C1338.43 1660.79 1326.56 1661.54 1312.93 1667.05C1302.79 1671.14 1294.24 1675.86 1287.28 1681.2C1280.31 1686.56 1273.46 1693.44 1266.79 1701.93L1239.28 1680.22ZM1306.75 1751.76L1309.74 1759.21C1311.57 1763.74 1314.01 1767.83 1317.01 1771.4C1320.04 1774.98 1323.69 1777.71 1328.07 1779.56C1332.44 1781.42 1337.36 1782.32 1342.85 1782.23C1348.37 1782.16 1354.54 1780.76 1361.34 1778C1374.35 1772.74 1382.77 1765.38 1386.52 1755.94C1390.28 1746.5 1390.2 1736.89 1386.27 1727.18L1383.63 1720.66L1306.75 1751.76Z" fill="white"/>
<path d="M1233.9 1917.14L1192.22 1923.22L1155.78 1673.07L1197.45 1666.98L1233.9 1917.14Z" fill="white"/>
<path d="M1109.29 1860.34L1067.16 1859.92L1069.05 1675.66L1111.18 1676.08L1109.29 1860.34ZM1109.55 1932.89L1065.41 1932.44L1065.88 1886.99L1110.02 1887.44L1109.55 1932.89Z" fill="white"/>
<path d="M990.932 1666.68L1005.86 1859.97L961.013 1849.08L954.627 1698.5L953.331 1698.19L878.151 1828.91L835.582 1818.56L937.614 1653.72L990.932 1666.68Z" fill="white"/>
<path d="M729.376 1567.19C740.128 1566.72 751.553 1568.17 763.683 1571.43C775.794 1574.72 789.266 1580.91 804.08 1590.03C813.19 1595.64 821.279 1602.27 828.367 1609.9C835.435 1617.54 840.619 1626.23 843.9 1635.98C847.181 1645.72 847.975 1656.54 846.263 1668.46C844.551 1680.37 839.373 1693.33 830.717 1707.4L820.729 1723.63C812.898 1736.33 804.296 1746.17 794.917 1753.09C785.538 1760.01 775.787 1764.49 765.659 1766.48C755.513 1768.49 745.258 1768.26 734.873 1765.78C724.487 1763.29 714.261 1758.97 704.212 1752.78C694.35 1746.7 686.055 1739.64 679.371 1731.6C672.686 1723.55 668.094 1714.75 665.575 1705.21C663.081 1695.69 662.762 1685.54 664.685 1674.79C666.608 1664.04 671.048 1652.98 678.071 1641.61L694.038 1615.7L799.061 1680.42C806.785 1667.9 809.286 1656.41 806.565 1645.94C803.844 1635.47 796.228 1626.4 783.694 1618.7C774.397 1612.98 765.541 1608.87 757.089 1606.43C748.636 1603.98 739.034 1602.57 728.266 1602.21L729.376 1567.19ZM711.727 1663.98L707.537 1670.81C704.96 1674.97 703.128 1679.36 702.01 1683.92C700.892 1688.48 700.881 1693.05 702 1697.66C703.095 1702.24 705.286 1706.76 708.609 1711.15C711.933 1715.54 716.721 1719.68 722.967 1723.53C734.917 1730.89 745.833 1733.29 755.648 1730.71C765.507 1728.12 773.169 1722.37 778.661 1713.47L782.351 1707.48L711.727 1663.98Z" fill="white"/>
<path d="M535.209 1547.42C536.327 1550.64 537.806 1553.79 539.711 1556.88C541.616 1559.98 544.334 1563.52 547.951 1567.48C551.848 1571.78 556.211 1575.13 561.059 1577.51C565.907 1579.89 570.926 1581.21 576.114 1581.47C581.302 1581.72 586.472 1580.96 591.617 1579.15C596.743 1577.35 601.554 1574.43 606.031 1570.4L687.173 1497.06L715.424 1528.32L578.709 1651.9L551.568 1621.88L571.437 1603.94L570.983 1603.43C560.765 1606.08 550.82 1606.25 541.259 1603.94C531.654 1601.64 522.472 1595.62 513.664 1585.86C510.519 1582.37 507.652 1578.68 504.995 1574.77C502.337 1570.86 500.307 1567.28 498.903 1564.03L535.209 1547.42Z" fill="white"/>
<path d="M532.543 1254.47L532.837 1255.43C542.799 1257.47 550.975 1262.55 557.295 1270.62C563.638 1278.7 568.452 1288.06 571.736 1298.7C578.707 1321.28 577.35 1340.17 567.713 1355.4C558.076 1370.63 541.294 1381.93 517.454 1389.29L486.462 1398.86C474.53 1402.53 463.325 1404.22 452.812 1403.83C442.323 1403.46 432.852 1401.19 424.465 1397.02C416.079 1392.85 408.779 1386.99 402.59 1379.45C396.402 1371.91 391.687 1362.82 388.379 1352.16C386.219 1345.13 384.971 1338.81 384.635 1333.2C384.3 1327.59 384.482 1322.65 385.133 1318.34C385.808 1314.05 386.887 1310.38 388.392 1307.36C389.897 1304.33 391.429 1301.86 392.95 1300L312.444 1324.86L300.029 1284.61L541.592 1210.02L553.315 1248.04L532.543 1254.47ZM499.141 1351.57C514.074 1346.96 524.664 1340.37 530.995 1331.77C537.326 1323.17 538.674 1313.02 535.08 1301.29C533.04 1294.7 530.108 1289.11 526.269 1284.59C522.431 1280.07 517.996 1276.66 512.964 1274.37C507.932 1272.08 502.524 1270.77 496.723 1270.46C490.921 1270.15 485.016 1270.91 479.074 1272.77L443.283 1283.81C439.236 1285.06 435.382 1287.15 431.733 1290.01C428.066 1292.9 425.092 1296.48 422.817 1300.79C420.542 1305.11 419.112 1310.12 418.499 1315.77C417.909 1321.43 418.706 1327.79 420.866 1334.82C424.807 1347.58 431.873 1355.72 442.065 1359.25C452.232 1362.76 464.688 1362.23 479.371 1357.7L499.141 1351.57Z" fill="white"/>
<path d="M525.312 1022.19C531.049 1031.31 535.5 1041.93 538.649 1054.07C541.797 1066.22 543.107 1080.98 542.536 1098.37C542.189 1109.07 540.45 1119.39 537.342 1129.33C534.235 1139.28 529.275 1148.09 522.418 1155.78C515.585 1163.48 506.574 1169.54 495.388 1173.98C484.203 1178.42 470.367 1180.37 453.898 1179.82L434.864 1179.21C419.92 1178.73 407.159 1176.13 396.476 1171.45C385.812 1166.75 377.102 1160.52 370.316 1152.71C363.554 1144.91 358.674 1135.89 355.633 1125.63C352.616 1115.39 351.297 1104.36 351.7 1092.54C352.068 1080.97 354.106 1070.27 357.77 1060.45C361.434 1050.63 366.8 1042.29 373.82 1035.38C380.84 1028.47 389.492 1023.18 399.752 1019.49C410.037 1015.81 421.836 1014.19 435.212 1014.61L465.623 1015.6L461.591 1138.9C476.298 1139.39 487.51 1135.86 495.228 1128.3C502.946 1120.75 507.052 1109.61 507.547 1094.9C507.91 1083.98 507.037 1074.26 504.988 1065.7C502.921 1057.16 499.361 1048.12 494.331 1038.59L525.312 1022.19ZM432.563 1054.98L424.536 1054.72C419.643 1054.57 414.946 1055.12 410.43 1056.43C405.914 1057.73 401.953 1060.01 398.48 1063.24C395.032 1066.49 392.213 1070.61 390.053 1075.67C387.893 1080.73 386.68 1086.95 386.432 1094.31C385.961 1108.34 389.311 1118.99 396.417 1126.24C403.547 1133.51 412.341 1137.3 422.825 1137.63L429.85 1137.85L432.563 1054.98Z" fill="white"/>
<path d="M539.915 922.881C543.092 913.837 544.432 906.215 543.913 899.998C543.393 893.78 539.757 889.493 533.024 887.112L531.12 886.441C528.195 885.401 525.576 884.907 523.326 884.93C521.076 884.953 518.778 885.979 516.409 887.989C514.04 889.999 511.401 893.147 508.471 897.416C505.54 901.684 501.783 907.66 497.214 915.276C491.398 925.042 485.744 933.163 480.294 939.634C474.821 946.085 469.149 950.959 463.274 954.211C457.4 957.463 451.132 959.14 444.478 959.284C437.823 959.428 430.392 958.045 422.184 955.134L419.035 954.035C413.142 951.96 407.75 948.696 402.815 944.247C397.881 939.798 394.063 934.06 391.325 927.082C388.587 920.103 387.311 911.836 387.462 902.327C387.631 892.795 389.866 881.941 394.167 869.765C397.732 859.675 402.439 849.355 408.3 838.739C414.166 828.164 422.246 819.002 432.521 811.274L455.205 838.405C449.139 842.895 443.966 848.464 439.73 855.107C435.475 861.773 432.033 868.879 429.344 876.454C424.966 888.877 423.389 897.894 424.57 903.508C425.775 909.141 428.698 912.76 433.322 914.388L435.226 915.059C438.375 916.157 441.036 916.646 443.246 916.476C445.432 916.288 447.626 915.297 449.804 913.484C452 911.648 454.353 908.817 456.863 904.992C459.415 901.161 462.487 896.116 466.116 889.81C472.278 879.697 478.057 871.018 483.44 863.842C488.817 856.622 494.462 851.189 500.387 847.475C506.312 843.762 512.798 841.754 519.906 841.423C527.014 841.092 535.167 842.536 544.415 845.792L547.884 847.024C554.617 849.405 560.487 853.195 565.512 858.369C570.542 863.586 574.307 869.937 576.872 877.435C579.419 884.958 580.556 893.503 580.221 903.099C579.906 912.672 577.814 922.944 573.985 933.869C568.872 948.378 562.125 961.425 553.79 973.046C545.431 984.649 536.421 993.474 526.734 999.502L502.708 971.175C510.696 965.252 517.945 958.447 524.418 950.808C530.904 943.102 536.062 933.787 539.915 922.881Z" fill="white"/>
<path d="M457.695 742.699L480.152 707.05L636.057 805.209L613.599 840.858L457.695 742.699ZM395.76 704.907L419.281 667.542L457.764 691.776L434.243 729.14L395.76 704.907Z" fill="white"/>
<path d="M721.471 673.006L720.989 673.478C723.587 683.312 722.813 692.683 718.641 701.57C714.47 710.458 708.381 718.742 700.314 726.452C683.21 742.773 665.678 749.983 647.747 748.144C629.817 746.306 612.232 736.342 595.017 718.272L574.959 697.224C566.501 688.343 560.103 679.139 555.761 669.567C551.42 659.995 549.211 650.502 549.105 641.026C549.024 631.568 550.969 622.376 554.988 613.485C558.984 604.577 565.03 596.298 573.078 588.612C578.246 583.694 583.304 579.808 588.249 576.911C593.217 574.033 597.869 571.909 602.241 570.492C606.594 569.1 610.571 568.339 614.125 568.174C617.679 568.008 620.631 568.222 622.993 568.748L623.246 568.521L612.172 556.915L641.447 528.988L767.407 661.138C785.094 679.69 793.201 698.386 791.724 717.183C790.247 735.979 778.53 755.869 756.586 776.786C748.186 784.775 738.526 791.364 727.608 796.551C716.69 801.737 706.464 804.844 696.997 805.883L688.191 769.011C690.54 768.911 693.595 768.397 697.332 767.45C701.07 766.503 704.917 765.217 708.891 763.569C712.866 761.921 716.821 759.95 720.748 757.571C724.655 755.216 728.235 752.491 731.467 749.419C742.285 739.11 748.277 729.018 749.48 719.096C750.665 709.197 746.566 699.314 737.187 689.487L721.471 673.006ZM620.662 685.061C631.438 696.357 642.076 702.927 652.595 704.745C663.113 706.563 672.814 703.241 681.696 694.779C686.709 690.01 690.379 684.89 692.704 679.42C695.029 673.949 696.138 668.458 695.923 662.939C695.75 657.414 694.505 651.981 692.189 646.64C689.872 641.298 686.569 636.384 682.275 631.854L658.728 607.172C655.807 604.094 652.244 601.596 648.028 599.592C643.812 597.587 639.263 596.556 634.395 596.432C629.508 596.332 624.402 597.256 619.066 599.271C613.729 601.285 608.409 604.815 603.087 609.882C593.412 619.116 589.265 629.062 590.67 639.74C592.074 650.418 598.078 661.318 608.68 672.442L620.662 685.061Z" fill="white"/>
<path d="M810.079 431.011C817.633 427.677 825.41 425.594 833.445 424.713C841.462 423.856 849.346 424.706 857.055 427.267C864.763 429.829 872.007 434.378 878.76 440.894C885.514 447.411 891.394 456.29 896.328 467.477L944.746 577.318L906.196 594.344L861.412 492.756C850.519 468.084 834.377 460.474 812.964 469.906C809.907 471.266 806.479 473.3 802.71 476.071C798.941 478.842 795.773 482.425 793.186 486.845C790.623 491.284 789.146 496.605 788.74 502.874C788.335 509.143 789.967 516.455 793.661 524.83L837.649 624.569L799.099 641.595L724.767 473.008L761.185 456.943L769.69 476.217L770.285 475.947C772.415 464.781 777.091 455.592 784.267 448.384C791.492 441.214 800.08 435.411 810.079 431.011Z" fill="white"/>
<path d="M1037.85 532.132C1047.37 531.172 1054.85 529.126 1060.26 526.018C1065.68 522.91 1068 517.786 1067.31 510.702L1067.12 508.711C1066.8 505.61 1066.18 503.045 1065.18 501.004C1064.19 498.962 1062.3 497.337 1059.47 496.025C1056.64 494.755 1052.67 493.673 1047.54 492.845C1042.41 492.018 1035.44 491.141 1026.62 490.257C1015.3 489.167 1005.56 487.49 997.374 485.291C989.191 483.093 982.391 480.005 976.961 476.095C971.526 472.143 967.354 467.208 964.373 461.235C961.435 455.256 959.499 447.939 958.631 439.295L958.299 435.957C957.694 429.75 958.337 423.473 960.288 417.096C962.221 410.743 965.77 404.837 970.959 399.396C976.123 393.936 983.056 389.273 991.733 385.386C1000.41 381.5 1011.2 378.907 1024.06 377.615C1034.71 376.534 1046.05 376.408 1058.13 377.206C1070.19 378.029 1081.9 381.43 1093.27 387.452L1078.32 419.535C1071.67 415.951 1064.45 413.653 1056.61 412.646C1048.78 411.639 1040.88 411.55 1032.87 412.34C1019.78 413.641 1010.94 416.053 1006.37 419.552C1001.78 423.033 999.754 427.231 1000.24 432.111L1000.42 434.102C1000.75 437.44 1001.47 440.037 1002.55 441.958C1003.64 443.88 1005.48 445.425 1008.06 446.618C1010.63 447.81 1014.22 448.746 1018.74 449.411C1023.29 450.096 1029.17 450.699 1036.4 451.349C1048.18 452.641 1058.46 454.163 1067.29 455.978C1076.1 457.773 1083.42 460.578 1089.29 464.367C1095.16 468.157 1099.76 473.19 1103.06 479.448C1106.38 485.725 1108.51 493.733 1109.5 503.51L1109.85 507.17C1110.57 514.273 1109.62 521.196 1107.06 527.952C1104.49 534.732 1100.33 540.822 1094.62 546.352C1088.89 551.838 1081.61 556.502 1072.81 560.296C1064.02 564.089 1053.82 566.563 1042.29 567.732C1026.97 569.27 1012.3 568.732 998.259 566.101C984.215 563.47 972.397 559.064 962.823 552.858L978.275 519.044C987.035 523.77 996.269 527.44 1005.94 530.059C1015.69 532.557 1026.29 533.282 1037.85 532.132Z" fill="white"/>
<path d="M1330.37 588.989L1329.41 588.633C1321.73 595.297 1313.02 598.733 1303.3 598.959C1293.6 599.161 1283.51 597.332 1273.06 593.49C1250.91 585.293 1236.73 572.735 1230.49 555.84C1224.28 538.921 1225.5 518.77 1234.17 495.321L1245.41 464.896C1249.75 453.171 1255.24 443.272 1261.92 435.174C1268.59 427.076 1276.16 420.946 1284.57 416.811C1292.98 412.677 1302.08 410.428 1311.81 410.135C1321.56 409.817 1331.66 411.58 1342.12 415.465C1348.59 417.878 1354.16 420.622 1358.82 423.784C1363.49 426.945 1367.35 430.099 1370.48 433.259C1373.58 436.443 1375.99 439.584 1377.68 442.708C1379.37 445.832 1380.61 448.601 1381.37 451.04L1382.01 451.264L1387.46 436.517L1425.74 450.658L1336.96 690.637L1298.09 676.267L1330.37 588.989ZM1275.28 503.732C1269.86 518.389 1268.65 530.804 1271.64 541.065C1274.62 551.307 1281.86 558.585 1293.35 562.816C1299.85 565.205 1306.04 566.245 1311.96 565.955C1317.9 565.641 1323.29 564.205 1328.19 561.618C1333.09 559.03 1337.39 555.52 1341.19 551.078C1344.97 546.659 1347.94 541.497 1350.09 535.659L1363.1 500.527C1364.57 496.55 1365.26 492.238 1365.22 487.585C1365.16 482.914 1364.11 478.366 1362.08 473.941C1360.03 469.498 1356.95 465.336 1352.8 461.417C1348.67 457.516 1343.13 454.292 1336.24 451.713C1323.68 447.076 1312.93 447.735 1303.97 453.672C1294.99 459.633 1287.84 469.827 1282.5 484.235L1275.28 503.732Z" fill="white"/>
<path d="M1439.58 684.226C1424.7 671.778 1416.51 657.447 1414.99 641.215C1413.48 624.983 1419.93 608.204 1434.38 590.938L1510.78 499.626L1543.09 526.651L1472.48 611.061C1467.32 617.213 1463.76 622.882 1461.76 628.03C1459.76 633.178 1459 637.932 1459.45 642.252C1459.91 646.571 1461.36 650.548 1463.83 654.202C1466.3 657.855 1469.4 661.258 1473.15 664.404C1476.39 667.116 1480.21 669.43 1484.57 671.351C1488.95 673.249 1493.63 674.155 1498.7 674.014C1503.76 673.898 1509.04 672.497 1514.58 669.872C1520.13 667.246 1525.54 662.752 1530.84 656.431L1599.74 574.078L1632.05 601.103L1513.81 742.462L1483.05 716.716L1497.21 699.768L1496.7 699.333C1491.78 701.057 1486.79 701.794 1481.72 701.63C1476.62 701.448 1471.62 700.604 1466.66 699.061C1461.7 697.519 1456.87 695.461 1452.24 692.86C1447.57 690.24 1443.34 687.372 1439.58 684.226Z" fill="white"/>
<path d="M1744.62 626.717L1770.35 662.565L1733.4 689.074L1707.67 653.227L1744.62 626.717ZM1686.25 669.853L1710.82 704.07L1561.13 811.559L1536.56 777.342L1686.25 669.853Z" fill="white"/>
<path d="M1787.72 841.114C1791.06 849.143 1793.46 856.468 1794.92 863.109C1796.38 869.75 1797.2 875.93 1797.39 881.625C1797.59 887.32 1797.28 892.666 1796.45 897.603C1795.62 902.539 1794.64 907.168 1793.56 911.486L1757.32 904.518C1759.95 895.197 1760.87 886.675 1760.05 878.913C1759.23 871.152 1757.16 863.267 1753.79 855.262C1751.74 850.32 1748.98 845.902 1745.55 842.043C1742.11 838.143 1737.97 835.197 1733.12 833.121C1728.26 831.045 1722.69 830.1 1716.39 830.329C1710.07 830.54 1703.01 832.294 1695.21 835.551L1674.54 844.174C1665.89 847.775 1659.2 851.975 1654.43 856.736C1649.65 861.496 1646.33 866.464 1644.48 871.571C1642.63 876.679 1641.97 881.788 1642.52 886.875C1643.07 891.962 1644.24 896.646 1646.04 900.97C1650.51 911.674 1655.5 920.016 1661.04 926.057C1666.56 932.078 1672.85 937.115 1679.86 941.216L1659.19 971.592C1651.43 968.062 1643.21 961.6 1634.45 952.216C1625.69 942.832 1618.09 930.421 1611.67 915.001C1601.19 889.887 1600.17 867.874 1608.55 848.901C1616.94 829.928 1633.27 815.394 1657.56 805.232L1678.87 796.333C1703.14 786.195 1724.87 785.13 1744.08 793.199C1763.18 801.303 1777.75 817.236 1787.72 841.114Z" fill="white"/>
<path d="M1760.24 1081.66L1659.05 1165.3L1654.42 1111.65L1728.05 1054.92L1702.9 1035.96L1648.25 1040.72L1644.61 998.731L1896.47 976.837L1900.11 1018.82L1754.21 1031.5L1837.77 1093.37L1842.36 1146.33L1760.24 1081.66Z" fill="white"/>
<path d="M1899.53 1222.01L1893.12 1263.66L1643.29 1225.17L1649.7 1183.53L1899.53 1222.01Z" fill="white"/>
<path d="M1798.24 1360.13L1656.46 1347.44L1655.97 1348.68L1766.05 1439.08L1749.11 1480.56L1543.8 1293.5L1571.41 1262.12L1618.48 1306.96L1815.94 1316.78L1798.24 1360.13Z" fill="white"/>
</svg>
